<svg width="24" height="24" viewBox="0 0 24 24" xmlns="http://www.w3.org/2000/svg">
<style type="text/css">
	.st0{fill-rule:evenodd;clip-rule:evenodd;}
</style>
  <path class="st0" d="M2.35876 4.60777C2.54573 3.67292 3.36655 3 4.31992 3H19.6803C20.6337 3 21.4545 3.67292 21.6415 4.60777L22.2415 7.60777C22.4389 8.59504 21.8765 9.52954 21.0001 9.86717V10.0003V20.0018C21.0001 20.5533 20.5552 21.0003 20.0067 21.0003H3.99351C3.44487 21.0003 3.00011 20.5528 3.00011 20.0018V10.0003V9.86717C2.12377 9.52954 1.5613 8.59505 1.75876 7.60777L2.35876 4.60777ZM19.6803 5L4.31992 5L3.71992 8L20.2803 8L19.6803 5ZM19.0001 10.0003H5.00011V19.0003H19.0001V10.0003ZM10 12H14C14.5523 12 15 12.4477 15 13C15 13.5523 14.5523 14 14 14H10C9.44772 14 9 13.5523 9 13C9 12.4477 9.44772 12 10 12Z"/>
</svg>
