<svg width="20" height="20" viewBox="0 0 20 20" fill="none" xmlns="http://www.w3.org/2000/svg">
<path fill-rule="evenodd" clip-rule="evenodd" d="M0 10C0 15.523 4.477 20 10 20C15.523 20 20 15.523 20 10C20 4.477 15.523 0 10 0C4.477 0 0 4.477 0 10ZM9.47461 13.5285C9.21424 13.7889 8.79207 13.7889 8.53169 13.5285L5.46717 10.464C5.0767 10.0735 5.0767 9.44045 5.46716 9.04999C5.85763 8.65952 6.4907 8.65952 6.88117 9.04999L9.00317 11.172L13.9522 6.22211C14.3426 5.83159 14.9757 5.83156 15.3662 6.22205C15.7567 6.61249 15.7567 7.24551 15.3663 7.63598L9.47461 13.5285Z"/>
</svg>
