<svg width="42" height="30" viewBox="0 0 42 30" fill="none" xmlns="http://www.w3.org/2000/svg">
<path opacity="0.46" fill-rule="evenodd" clip-rule="evenodd" d="M41.373 29.8346C41.5608 29.7354 41.7443 29.5467 41.846 29.3481C42.01 29.0277 42.0119 28.918 41.9905 20.8126C41.969 12.6639 41.9675 12.5999 41.7996 12.3759C41.7066 12.2517 41.5285 12.0743 41.404 11.9816C41.1846 11.8183 41.066 11.8123 37.658 11.79L34.1385 11.7671L34.1153 6.31272C34.092 0.869094 34.0916 0.857812 33.913 0.572257C33.5594 0.00678518 33.5233 7.41052e-07 30.8591 9.73969e-07L28.472 1.18266e-06L28.1481 0.291604C27.8282 0.57945 27.7978 0.661773 25.7671 6.73619L23.7102 12.8892L23.7319 21.0312C23.7534 29.1101 23.7549 29.1749 23.9228 29.3989C24.0158 29.523 24.1939 29.7004 24.3185 29.7931C24.5434 29.9605 24.6041 29.9619 32.8057 29.9792C40.9007 29.9963 41.0724 29.9933 41.373 29.8346ZM17.5219 29.8876C17.852 29.7443 18.197 29.3267 18.2561 28.9988C18.2823 28.8539 18.293 25.1053 18.2799 20.6685C18.2564 12.667 18.2548 12.5998 18.087 12.3759C17.994 12.2517 17.8159 12.0743 17.6914 11.9816C17.472 11.8182 17.3538 11.8123 13.9033 11.79L10.3417 11.7671L10.3195 6.21193L10.2973 0.656707L9.9884 0.34875L9.67949 0.0408773L7.26286 0.016925C4.58144 -0.00956208 4.49382 0.00458092 4.18096 0.514953C4.09276 0.658834 3.11595 3.48202 2.01023 6.78852L-1.50363e-06 12.8005L-7.94301e-07 20.9143C-9.74939e-08 28.8848 0.00295249 29.0338 0.165165 29.3507C0.271503 29.5584 0.445778 29.7321 0.65427 29.838C0.972462 29.9997 1.11859 30.0025 9.12483 29.9994C15.7127 29.9968 17.3195 29.9754 17.5219 29.8876Z" fill="url(#paint0_linear_229_6988)"/>
<defs>
<linearGradient id="paint0_linear_229_6988" x1="7" y1="29" x2="32" y2="4.5" gradientUnits="userSpaceOnUse">
<stop stop-color="#6A6B75"/>
<stop offset="1" stop-color="#B3B3B3"/>
</linearGradient>
</defs>
</svg>
