<svg width="24" height="24" viewBox="0 0 24 24" xmlns="http://www.w3.org/2000/svg">
	<style type="text/css">
		.st0 {
			fill-rule: evenodd;
			clip-rule: evenodd;
		}
	</style>
	<path
		d="M4 16C4 15.4477 4.44772 15 5 15C5.55228 15 6 15.4477 6 16V20H18V4H6V8C6 8.55228 5.55228 9 5 9C4.44772 9 4 8.55228 4 8V3C4 2.44772 4.44772 2 5 2H19C19.5523 2 20 2.44772 20 3V21C20 21.5523 19.5523 22 19 22H5C4.44772 22 4 21.5523 4 21V16ZM10 11V8.41613C10 8.24842 10.194 8.15519 10.3249 8.25995L14.8048 11.8438C14.9049 11.9239 14.9049 12.0761 14.8048 12.1562L10.3249 15.74C10.194 15.8448 10 15.7516 10 15.5839V13H3C2.44772 13 2 12.5523 2 12C2 11.4477 2.44772 11 3 11H10Z" />
</svg>