<svg width="24" height="24" viewBox="0 0 24 24" xmlns="http://www.w3.org/2000/svg">
  <style type="text/css">
    .st0 {
      fill-rule: evenodd;
      clip-rule: evenodd;
    }
  </style>
  <path
    d="M4 19C4 18.4477 4.44772 18 5 18C5.55228 18 6 18.4477 6 19V20H18V4H6V5C6 5.55228 5.55228 6 5 6C4.44772 6 4 5.55228 4 5V3C4 2.44772 4.44772 2 5 2H19C19.5523 2 20 2.44772 20 3V21C20 21.5523 19.5523 22 19 22H5C4.44772 22 4 21.5523 4 21V19ZM6 11H12C12.5523 11 13 11.4477 13 12C13 12.5523 12.5523 13 12 13H6V15.5839C6 15.7516 5.80601 15.8448 5.67506 15.74L1.19522 12.1562C1.09514 12.0761 1.09514 11.9239 1.19522 11.8438L5.67506 8.25995C5.80601 8.15519 6 8.24842 6 8.41612V11Z" />
</svg>